<mxfile host="65bd71144e">
    <diagram id="m_fbVdYP4dKAS80FfB6-" name="第 1 页">
        <mxGraphModel dx="1600" dy="-632" grid="1" gridSize="10" guides="1" tooltips="1" connect="1" arrows="1" fold="1" page="1" pageScale="1" pageWidth="827" pageHeight="1169" math="0" shadow="0">
            <root>
                <mxCell id="0"/>
                <mxCell id="1" parent="0"/>
                <mxCell id="2" value="" style="rounded=1;whiteSpace=wrap;html=1;fontColor=#FCFCFC;arcSize=3;fillColor=#FEFCFF;" vertex="1" parent="1">
                    <mxGeometry x="77" y="1711" width="713" height="438" as="geometry"/>
                </mxCell>
                <mxCell id="3" value="&lt;font color=&quot;#000000&quot;&gt;算法模型图&lt;/font&gt;" style="text;html=1;align=center;verticalAlign=middle;resizable=0;points=[];autosize=1;strokeColor=none;fillColor=none;fontColor=#FCFCFC;" vertex="1" parent="1">
                    <mxGeometry x="400" y="1713" width="78" height="26" as="geometry"/>
                </mxCell>
                <mxCell id="4" value="&lt;div style=&quot;&quot;&gt;&lt;br&gt;&lt;/div&gt;" style="rounded=1;whiteSpace=wrap;html=1;fontColor=#000000;fillColor=#FEFCFF;strokeColor=#000000;arcSize=2;dashed=1;align=left;" vertex="1" parent="1">
                    <mxGeometry x="98" y="1738" width="192" height="400" as="geometry"/>
                </mxCell>
                <mxCell id="5" value="&lt;b&gt;阶段一：数据处理&lt;/b&gt;" style="text;html=1;align=left;verticalAlign=middle;resizable=0;points=[];autosize=1;strokeColor=none;fillColor=none;fontColor=#000000;" vertex="1" parent="1">
                    <mxGeometry x="101" y="1741" width="114" height="26" as="geometry"/>
                </mxCell>
                <mxCell id="6" value="标准图像数据" style="rounded=0;whiteSpace=wrap;html=1;strokeColor=#000000;fontColor=#000000;fillColor=#2EE3F0;" vertex="1" parent="1">
                    <mxGeometry x="135" y="2055" width="120" height="60" as="geometry"/>
                </mxCell>
                <mxCell id="7" value="&lt;font color=&quot;#000000&quot;&gt;清洗&lt;/font&gt;" style="shape=singleArrow;direction=south;whiteSpace=wrap;html=1;strokeColor=#A50040;fontColor=#ffffff;fillColor=#d80073;arrowWidth=0.6228845635775906;arrowSize=0.3297301412171649;" vertex="1" parent="1">
                    <mxGeometry x="160.5" y="1856" width="67" height="59" as="geometry"/>
                </mxCell>
                <mxCell id="8" value="&lt;font color=&quot;#000000&quot;&gt;增强&lt;/font&gt;" style="shape=singleArrow;direction=south;whiteSpace=wrap;html=1;strokeColor=#A50040;fontColor=#ffffff;fillColor=#d80073;arrowWidth=0.6228845635775906;arrowSize=0.3297301412171649;" vertex="1" parent="1">
                    <mxGeometry x="160.5" y="1919" width="67" height="59" as="geometry"/>
                </mxCell>
                <mxCell id="9" value="&lt;font color=&quot;#000000&quot;&gt;归一化&lt;/font&gt;" style="shape=singleArrow;direction=south;whiteSpace=wrap;html=1;strokeColor=#A50040;fontColor=#ffffff;fillColor=#d80073;arrowWidth=0.6228845635775906;arrowSize=0.3297301412171649;" vertex="1" parent="1">
                    <mxGeometry x="160.5" y="1986" width="67" height="59" as="geometry"/>
                </mxCell>
                <mxCell id="10" value="原始图像数据" style="shape=parallelogram;perimeter=parallelogramPerimeter;whiteSpace=wrap;html=1;fixedSize=1;strokeColor=#000000;fontColor=#000000;fillColor=#2EE3F0;" vertex="1" parent="1">
                    <mxGeometry x="135" y="1789" width="120" height="60" as="geometry"/>
                </mxCell>
                <mxCell id="11" value="&lt;div style=&quot;&quot;&gt;&lt;br&gt;&lt;/div&gt;" style="rounded=1;whiteSpace=wrap;html=1;fontColor=#000000;fillColor=#FEFCFF;strokeColor=#000000;arcSize=2;dashed=1;align=left;" vertex="1" parent="1">
                    <mxGeometry x="309" y="1738" width="295" height="400" as="geometry"/>
                </mxCell>
                <mxCell id="12" value="&lt;b&gt;阶段二：特征提取&lt;/b&gt;" style="text;html=1;align=left;verticalAlign=middle;resizable=0;points=[];autosize=1;strokeColor=none;fillColor=none;fontColor=#000000;" vertex="1" parent="1">
                    <mxGeometry x="310" y="1741" width="114" height="26" as="geometry"/>
                </mxCell>
                <mxCell id="14" value="YOLOv8神经网络" style="text;html=1;align=left;verticalAlign=middle;resizable=0;points=[];autosize=1;strokeColor=none;fillColor=none;fontColor=#000000;" vertex="1" parent="1">
                    <mxGeometry x="410" y="2113" width="120" height="30" as="geometry"/>
                </mxCell>
                <mxCell id="15" value="输入" style="shape=singleArrow;whiteSpace=wrap;html=1;strokeColor=#000000;fontColor=#000000;fillColor=#2EE3F0;arrowWidth=0.6914764339868568;arrowSize=0.24281222485413145;" vertex="1" parent="1">
                    <mxGeometry x="264" y="2079" width="69" height="23" as="geometry"/>
                </mxCell>
                <mxCell id="16" value="&lt;div style=&quot;&quot;&gt;&lt;br&gt;&lt;/div&gt;" style="rounded=1;whiteSpace=wrap;html=1;fontColor=#000000;fillColor=#FEFCFF;strokeColor=#000000;arcSize=2;dashed=1;align=left;" vertex="1" parent="1">
                    <mxGeometry x="620" y="1738" width="127.5" height="400" as="geometry"/>
                </mxCell>
                <mxCell id="17" value="&lt;b&gt;阶段三：结果推理&lt;/b&gt;" style="text;html=1;align=left;verticalAlign=middle;resizable=0;points=[];autosize=1;strokeColor=none;fillColor=none;fontColor=#000000;" vertex="1" parent="1">
                    <mxGeometry x="620" y="1739" width="120" height="30" as="geometry"/>
                </mxCell>
                <mxCell id="18" value="知识图谱" style="text;html=1;align=center;verticalAlign=middle;resizable=0;points=[];autosize=1;strokeColor=none;fillColor=none;fontColor=#000000;" vertex="1" parent="1">
                    <mxGeometry x="339" y="1900" width="70" height="30" as="geometry"/>
                </mxCell>
                <mxCell id="19" value="" style="ellipse;whiteSpace=wrap;html=1;strokeColor=#000000;fontColor=#000000;fillColor=#8F8F8F;dashed=1;" vertex="1" parent="1">
                    <mxGeometry x="340" y="1779" width="250" height="121" as="geometry"/>
                </mxCell>
                <mxCell id="20" style="html=1;exitX=1;exitY=0.5;exitDx=0;exitDy=0;entryX=0;entryY=0.5;entryDx=0;entryDy=0;strokeColor=#292929;fontColor=#000000;endArrow=none;endFill=0;" edge="1" parent="1" source="21" target="29">
                    <mxGeometry relative="1" as="geometry"/>
                </mxCell>
                <mxCell id="21" value="" style="ellipse;whiteSpace=wrap;html=1;aspect=fixed;strokeColor=#000000;fontColor=#000000;fillColor=#FF0F27;" vertex="1" parent="1">
                    <mxGeometry x="403" y="1810" width="17" height="17" as="geometry"/>
                </mxCell>
                <mxCell id="22" style="edgeStyle=none;html=1;exitX=0.5;exitY=0;exitDx=0;exitDy=0;entryX=0.5;entryY=1;entryDx=0;entryDy=0;strokeColor=#292929;fontColor=#000000;endArrow=none;endFill=0;" edge="1" parent="1" source="24" target="37">
                    <mxGeometry relative="1" as="geometry"/>
                </mxCell>
                <mxCell id="23" style="edgeStyle=none;html=1;exitX=0;exitY=0.5;exitDx=0;exitDy=0;entryX=1;entryY=0.5;entryDx=0;entryDy=0;strokeColor=#292929;fontColor=#000000;endArrow=none;endFill=0;" edge="1" parent="1" source="24" target="38">
                    <mxGeometry relative="1" as="geometry"/>
                </mxCell>
                <mxCell id="24" value="" style="ellipse;whiteSpace=wrap;html=1;aspect=fixed;strokeColor=#000000;fontColor=#000000;fillColor=#FF0F27;" vertex="1" parent="1">
                    <mxGeometry x="550" y="1834.5" width="20" height="20" as="geometry"/>
                </mxCell>
                <mxCell id="25" style="edgeStyle=none;html=1;exitX=1;exitY=0.5;exitDx=0;exitDy=0;entryX=0;entryY=0.5;entryDx=0;entryDy=0;strokeColor=#292929;fontColor=#000000;endArrow=none;endFill=0;" edge="1" parent="1" source="26" target="36">
                    <mxGeometry relative="1" as="geometry"/>
                </mxCell>
                <mxCell id="26" value="" style="ellipse;whiteSpace=wrap;html=1;aspect=fixed;strokeColor=#000000;fontColor=#000000;fillColor=#FF0F27;" vertex="1" parent="1">
                    <mxGeometry x="466" y="1860" width="14" height="14" as="geometry"/>
                </mxCell>
                <mxCell id="27" style="edgeStyle=none;html=1;exitX=1;exitY=0;exitDx=0;exitDy=0;entryX=0;entryY=1;entryDx=0;entryDy=0;strokeColor=#292929;fontColor=#000000;endArrow=none;endFill=0;" edge="1" parent="1" source="28" target="21">
                    <mxGeometry relative="1" as="geometry"/>
                </mxCell>
                <mxCell id="28" value="" style="ellipse;whiteSpace=wrap;html=1;aspect=fixed;strokeColor=#000000;fontColor=#000000;fillColor=#4FFF0F;" vertex="1" parent="1">
                    <mxGeometry x="386" y="1834.5" width="10" height="10" as="geometry"/>
                </mxCell>
                <mxCell id="29" value="" style="ellipse;whiteSpace=wrap;html=1;aspect=fixed;strokeColor=#000000;fontColor=#000000;fillColor=#4FFF0F;" vertex="1" parent="1">
                    <mxGeometry x="435" y="1814" width="10" height="10" as="geometry"/>
                </mxCell>
                <mxCell id="30" style="edgeStyle=none;html=1;exitX=1;exitY=1;exitDx=0;exitDy=0;entryX=0.054;entryY=0.271;entryDx=0;entryDy=0;entryPerimeter=0;strokeColor=#292929;fontColor=#000000;endArrow=none;endFill=0;" edge="1" parent="1" source="31" target="21">
                    <mxGeometry relative="1" as="geometry"/>
                </mxCell>
                <mxCell id="31" value="" style="ellipse;whiteSpace=wrap;html=1;aspect=fixed;strokeColor=#000000;fontColor=#000000;fillColor=#4FFF0F;" vertex="1" parent="1">
                    <mxGeometry x="387" y="1800" width="10" height="10" as="geometry"/>
                </mxCell>
                <mxCell id="32" style="edgeStyle=none;html=1;exitX=1;exitY=1;exitDx=0;exitDy=0;strokeColor=#292929;fontColor=#000000;endArrow=none;endFill=0;" edge="1" parent="1" source="33" target="26">
                    <mxGeometry relative="1" as="geometry"/>
                </mxCell>
                <mxCell id="33" value="" style="ellipse;whiteSpace=wrap;html=1;aspect=fixed;strokeColor=#000000;fontColor=#000000;fillColor=#4FFF0F;" vertex="1" parent="1">
                    <mxGeometry x="456" y="1846" width="10" height="10" as="geometry"/>
                </mxCell>
                <mxCell id="34" style="edgeStyle=none;html=1;exitX=0.5;exitY=0;exitDx=0;exitDy=0;entryX=0.5;entryY=1;entryDx=0;entryDy=0;strokeColor=#292929;fontColor=#000000;endArrow=none;endFill=0;" edge="1" parent="1" source="35" target="26">
                    <mxGeometry relative="1" as="geometry"/>
                </mxCell>
                <mxCell id="35" value="" style="ellipse;whiteSpace=wrap;html=1;aspect=fixed;strokeColor=#000000;fontColor=#000000;fillColor=#4FFF0F;" vertex="1" parent="1">
                    <mxGeometry x="468" y="1880.5" width="10" height="10" as="geometry"/>
                </mxCell>
                <mxCell id="36" value="" style="ellipse;whiteSpace=wrap;html=1;aspect=fixed;strokeColor=#000000;fontColor=#000000;fillColor=#4FFF0F;" vertex="1" parent="1">
                    <mxGeometry x="494" y="1864" width="10" height="10" as="geometry"/>
                </mxCell>
                <mxCell id="37" value="" style="ellipse;whiteSpace=wrap;html=1;aspect=fixed;strokeColor=#000000;fontColor=#000000;fillColor=#4FFF0F;" vertex="1" parent="1">
                    <mxGeometry x="555" y="1810" width="10" height="10" as="geometry"/>
                </mxCell>
                <mxCell id="38" value="" style="ellipse;whiteSpace=wrap;html=1;aspect=fixed;strokeColor=#000000;fontColor=#000000;fillColor=#4FFF0F;" vertex="1" parent="1">
                    <mxGeometry x="530" y="1839.5" width="10" height="10" as="geometry"/>
                </mxCell>
                <mxCell id="39" style="edgeStyle=none;html=1;exitX=1;exitY=0;exitDx=0;exitDy=0;entryX=0;entryY=1;entryDx=0;entryDy=0;strokeColor=#292929;fontColor=#000000;endArrow=none;endFill=0;" edge="1" parent="1" source="40" target="24">
                    <mxGeometry relative="1" as="geometry"/>
                </mxCell>
                <mxCell id="40" value="" style="ellipse;whiteSpace=wrap;html=1;aspect=fixed;strokeColor=#000000;fontColor=#000000;fillColor=#4FFF0F;" vertex="1" parent="1">
                    <mxGeometry x="538.5" y="1860.5" width="10" height="10" as="geometry"/>
                </mxCell>
                <mxCell id="41" value="&lt;font style=&quot;font-size: 10px;&quot;&gt;预测&lt;b&gt;类别&lt;/b&gt;结果&lt;/font&gt;" style="shape=singleArrow;whiteSpace=wrap;html=1;strokeColor=#000000;fontColor=#000000;fillColor=#2EE3F0;arrowWidth=0.6914764339868568;arrowSize=0.24281222485413145;rotation=-90;" vertex="1" parent="1">
                    <mxGeometry x="423.5" y="1925" width="78.5" height="30" as="geometry"/>
                </mxCell>
                <mxCell id="42" value="输出结果" style="shape=singleArrow;whiteSpace=wrap;html=1;strokeColor=#000000;fontColor=#000000;fillColor=#2EE3F0;arrowWidth=0.6914764339868568;arrowSize=0.24281222485413145;" vertex="1" parent="1">
                    <mxGeometry x="590" y="2070" width="65" height="23" as="geometry"/>
                </mxCell>
                <mxCell id="43" style="edgeStyle=none;html=1;entryX=0.5;entryY=1;entryDx=0;entryDy=0;strokeColor=#292929;fontSize=10;fontColor=#000000;endArrow=classic;endFill=1;" edge="1" parent="1" source="44" target="48">
                    <mxGeometry relative="1" as="geometry"/>
                </mxCell>
                <mxCell id="44" value="神经网络预测结果" style="ellipse;whiteSpace=wrap;html=1;strokeColor=#000000;fontSize=10;fontColor=#000000;fillColor=#F598CC;" vertex="1" parent="1">
                    <mxGeometry x="660" y="2056.25" width="70" height="50.5" as="geometry"/>
                </mxCell>
                <mxCell id="45" style="edgeStyle=none;html=1;entryX=0.5;entryY=0;entryDx=0;entryDy=0;strokeColor=#292929;fontSize=10;fontColor=#000000;endArrow=classic;endFill=1;" edge="1" parent="1" source="46" target="48">
                    <mxGeometry relative="1" as="geometry"/>
                </mxCell>
                <mxCell id="46" value="知识图谱分析结果" style="ellipse;whiteSpace=wrap;html=1;strokeColor=#000000;fontSize=10;fontColor=#000000;fillColor=#F598CC;" vertex="1" parent="1">
                    <mxGeometry x="660" y="1817.25" width="69" height="44.5" as="geometry"/>
                </mxCell>
                <mxCell id="47" value="输出结果" style="shape=singleArrow;whiteSpace=wrap;html=1;strokeColor=#000000;fontColor=#000000;fillColor=#2EE3F0;arrowWidth=0.6914764339868568;arrowSize=0.24281222485413145;" vertex="1" parent="1">
                    <mxGeometry x="595.5" y="1828" width="54" height="23" as="geometry"/>
                </mxCell>
                <mxCell id="48" value="" style="shape=orEllipse;perimeter=ellipsePerimeter;whiteSpace=wrap;html=1;backgroundOutline=1;strokeColor=#000000;fontSize=10;fontColor=#000000;fillColor=#00CC00;" vertex="1" parent="1">
                    <mxGeometry x="682.5" y="1947.5" width="25" height="25" as="geometry"/>
                </mxCell>
                <mxCell id="49" value="融合" style="text;html=1;align=center;verticalAlign=middle;resizable=0;points=[];autosize=1;strokeColor=none;fillColor=none;fontColor=#000000;" vertex="1" parent="1">
                    <mxGeometry x="639" y="1945" width="50" height="30" as="geometry"/>
                </mxCell>
                <mxCell id="50" value="预测结果" style="shape=singleArrow;whiteSpace=wrap;html=1;strokeColor=#000000;fontColor=#000000;fillColor=#3DF011;arrowWidth=0.6914764339868568;arrowSize=0.24281222485413145;" vertex="1" parent="1">
                    <mxGeometry x="710" y="1949.5" width="60" height="23" as="geometry"/>
                </mxCell>
            </root>
        </mxGraphModel>
    </diagram>
</mxfile>